<svg width="14" height="13" viewBox="0 0 14 13" fill="none" xmlns="http://www.w3.org/2000/svg">
<path d="M11.375 0.5H3.125C3.03125 0.5 2.9375 0.546875 2.89062 0.640625L0.546875 4.08594C0.476562 4.17969 0.476562 4.32031 0.546875 4.41406L7.01562 12.4062C7.13281 12.5469 7.34375 12.5469 7.46094 12.4062L13.9297 4.41406C14 4.32031 14 4.17969 13.9531 4.08594L11.6094 0.640625C11.5391 0.546875 11.4688 0.5 11.375 0.5ZM10.9062 1.625L12.4062 3.875H10.7891L9.57031 1.625H10.9062ZM6.17188 1.625H8.30469L9.52344 3.875H4.97656L6.17188 1.625ZM3.57031 1.625H4.90625L3.6875 3.875H2.09375L3.57031 1.625ZM2.5625 5H3.75781L5.375 8.75L2.5625 5ZM4.97656 5H9.5L7.25 10.7188L4.97656 5ZM9.125 8.75L10.7188 5H11.9141L9.125 8.75Z" fill="#5B6676"/>
</svg>