<svg width="14" height="11" viewBox="0 0 14 11" fill="none" xmlns="http://www.w3.org/2000/svg">
<path d="M13.625 0.25C13.5781 0.25 13.5312 0.273438 13.4844 0.296875L9.5 1.75L5.46875 0.34375C5.30469 0.296875 5.14062 0.273438 4.97656 0.25C4.83594 0.25 4.67188 0.296875 4.50781 0.34375L0.96875 1.5625C0.6875 1.67969 0.5 1.96094 0.5 2.26562V10.375C0.5 10.6094 0.664062 10.75 0.851562 10.75C0.898438 10.75 0.945312 10.75 0.992188 10.7266L5 9.25L9.03125 10.6797C9.17188 10.7266 9.33594 10.75 9.5 10.75C9.66406 10.75 9.80469 10.7266 9.96875 10.6797L13.5078 9.46094C13.7891 9.34375 14 9.0625 14 8.75781V0.648438C14 0.414062 13.8125 0.25 13.625 0.25ZM5.75 1.63281L8.75 2.6875V9.39062L5.75 8.33594V1.63281ZM1.625 9.32031V2.54688L4.625 1.49219V8.19531H4.60156L1.625 9.32031ZM12.875 8.47656L9.875 9.53125V2.82812L12.875 1.70312V8.47656Z" fill="#5B6676"/>
</svg>