<svg width="97" height="32" viewBox="0 0 97 32" fill="none" xmlns="http://www.w3.org/2000/svg">
<path d="M81.5478 21.0667V20.7333H78.8605V22.4H79.1964V21.0667H81.5478ZM81.8165 18.7333V18.4H80.4057V20.2H80.7416V18.7333H81.8165ZM85.1757 20.8V20.4667H82.0181V22.4667H82.354V20.8H85.1757ZM85.1757 18.6667V18.3333H82.2196V20H82.5556V18.6667H85.1757ZM85.7804 22.4H89.3411V20.7333H85.7804V22.4ZM85.5788 20.0667H87.7959V18.4667H85.5788V20.0667ZM79.9354 26.9333C79.801 27.4667 79.4651 27.8 78.7933 27.9333C78.6589 27.9333 78.5245 27.9333 78.323 28L78.4574 27.4C78.6589 27.3333 78.7933 27.3333 78.8605 27.3333C79.1292 27.2667 79.2636 27.2 79.2636 27.0667V26.2667H77.584V24.4L77.7183 24.1333L77.2481 23.8667L77.5168 23.4L78.3902 23.4667L78.2558 23.9333V25.5333H79.8682L80.0698 25.6667V26.9333H79.9354ZM83.2946 27.5333L83.0258 28.1333L81.1447 26.6667V27.5333H81.7494L81.5478 28.1333H80.5401L80.4057 28L80.5401 27.6667C80.5401 27.4 80.6072 27.2 80.6072 27.0667C80.6072 26.6 80.5401 26.3333 80.4729 26.2L80.876 25.6667L82.4212 26.8H82.6899V26.3333L82.2868 26.2L82.5556 25.5333L83.4289 25.6667V26.8L83.0258 27.1333L83.2946 27.5333ZM85.9147 27.8L85.1757 28.1333V26.4H83.8992L83.6305 26.2L83.8992 25.5333C84.2351 25.6 84.5039 25.6 84.7726 25.6C84.907 25.6 85.1085 25.6 85.1757 25.6C85.3101 25.6 85.3773 25.6 85.5116 25.5333L85.8476 25.6667V27.8H85.9147ZM76.7778 26.5333C76.3075 26.3333 75.9044 26.0667 75.5685 25.7333C75.2326 25.4 74.9638 25.0667 74.7623 24.6667C74.5607 24.2667 74.4935 23.9333 74.4935 23.7333V23.1333C73.9561 22.8667 73.553 22.5333 73.2171 22.1333C72.9483 21.7333 72.814 21.2667 72.814 20.6667C72.814 20.5333 72.814 20.3333 72.8811 20C73.2171 20.2667 73.553 20.6 73.8217 21.0667C74.0904 21.5333 74.292 22 74.4264 22.4667V19.8667C73.8889 19.6 73.4858 19.2667 73.1499 18.8667C72.8811 18.4667 72.7468 18 72.7468 17.4C72.7468 17.2667 72.7468 17.0667 72.814 16.7333C73.1499 17 73.4858 17.3333 73.7545 17.8C74.0233 18.2667 74.2248 18.7333 74.3592 19.2V16.5333C73.8217 16.2667 73.4186 15.9333 73.0827 15.5333C72.814 15.1333 72.6796 14.6667 72.6796 14.0667C72.6796 13.9333 72.6796 13.7333 72.7468 13.4C73.0827 13.6667 73.4186 14 73.6873 14.4667C73.9561 14.9333 74.1576 15.4 74.292 15.8667V13.5333C73.7545 13.2667 73.3514 12.9333 73.0155 12.5333C72.7468 12.1333 72.6124 11.6667 72.6124 11.0667C72.6124 10.9333 72.6124 10.7333 72.6796 10.4C73.0155 10.6667 73.3514 11 73.6202 11.4667C73.8889 11.9333 74.0904 12.4 74.2248 12.8667V10.3333C73.7545 10.0667 73.3514 9.73333 73.0155 9.26667C72.6796 8.8 72.5452 8.33333 72.5452 7.8C72.5452 7.66667 72.5452 7.46667 72.6124 7.2C72.9483 7.46667 73.2842 7.8 73.553 8.26667C73.8217 8.73333 74.0233 9.2 74.1576 9.66667V7.4C73.6202 7.13333 73.2171 6.8 72.8811 6.4C72.6124 6 72.478 5.53333 72.478 4.93333C72.478 4.8 72.478 4.6 72.5452 4.26667C72.8811 4.53333 73.2171 4.86667 73.4858 5.33333C73.7545 5.8 73.9561 6.26667 74.0904 6.73333C74.0904 6.13333 74.0233 5.6 73.8217 5C73.6873 4.4 73.553 4 73.553 3.73333C73.553 3.33333 73.6202 2.86667 73.8217 2.46667C73.8889 2.33333 73.9561 2.13333 74.1576 1.86667C74.292 2.2 74.4264 2.4 74.4264 2.53333C74.6279 3.06667 74.7623 3.4 74.7623 3.53333C74.7623 3.86667 74.6951 4.26667 74.6279 4.66667C74.4264 5.6 74.3592 6.2 74.3592 6.46667C74.4935 6.06667 74.5607 5.8 74.6279 5.66667C74.8966 5.13333 75.3669 4.66667 75.9716 4.13333C75.9716 4.26667 76.0388 4.4 76.0388 4.46667C76.0388 4.53333 76.0388 4.66667 76.0388 4.73333C76.0388 5.6 75.77 6.2 75.2997 6.66667C75.031 6.86667 74.7623 7.06667 74.3592 7.13333V9.33333C74.4935 8.93333 74.6279 8.6 74.8295 8.33333C75.1654 7.86667 75.5013 7.4 75.9716 7C75.9716 7.13333 76.0388 7.26667 76.0388 7.33333C76.0388 7.4 76.0388 7.53333 76.0388 7.6C76.0388 8.46667 75.77 9.06667 75.2997 9.53333C75.031 9.73333 74.7623 9.93333 74.3592 10V12.4C74.4935 12 74.6279 11.6667 74.8295 11.4C75.1654 10.9333 75.5013 10.4667 75.9716 10.0667C75.9716 10.2 76.0388 10.3333 76.0388 10.4C76.0388 10.4667 76.0388 10.6 76.0388 10.6667C76.0388 11.5333 75.77 12.1333 75.2997 12.6C75.031 12.8 74.7623 13 74.3592 13.0667V15.6C74.4935 15.2 74.6279 14.8667 74.8295 14.6C75.1654 14.1333 75.5013 13.6667 75.9716 13.2667C75.9716 13.4 76.0388 13.5333 76.0388 13.6C76.0388 13.6667 76.0388 13.8 76.0388 13.8667C76.0388 14.7333 75.77 15.3333 75.2997 15.8C75.031 16 74.7623 16.2 74.3592 16.2667V18.8C74.4935 18.4 74.6279 18.0667 74.8295 17.8C75.1654 17.3333 75.5013 16.8667 75.9716 16.4667C75.9716 16.6 76.0388 16.7333 76.0388 16.8C76.0388 16.8667 76.0388 17 76.0388 17.0667C76.0388 17.9333 75.77 18.5333 75.2997 19C75.031 19.2 74.7623 19.4 74.3592 19.4667V22C74.4935 21.6 74.6279 21.2667 74.8295 21C75.1654 20.5333 75.5013 20.0667 75.9716 19.6667C75.9716 19.8 76.0388 19.9333 76.0388 20C76.0388 20.0667 76.0388 20.2 76.0388 20.2667C76.0388 21.1333 75.77 21.7333 75.2997 22.2C75.031 22.4 74.7623 22.6 74.3592 22.6667V23.2667C74.3592 23.6 74.4935 24 74.7623 24.4C75.0982 25 75.5685 25.3333 76.0388 25.4L76.7778 26.5333ZM89.677 25.6L89.5426 26.9333L89.0723 27.8L86.5194 28.1333L86.5866 26.8L86.8553 26.5333L86.385 26.2L86.7881 25.4667L87.5943 25.6L87.2584 26.4L87.3928 27.2C87.4599 27.2 87.46 27.1333 87.5271 27.1333C87.7287 27 87.9302 26.7333 87.9974 26.4L87.7287 26.0667L88.0646 25.4667H88.7364L88.3333 27.2C88.8708 27.2 89.1395 27 89.1395 26.6C89.1395 26.4667 89.0724 26.3333 88.938 26.2L89.0723 25.4667H89.677V25.6ZM91.2222 25.6667L90.9535 26.9333L90.416 27.0667V26.4667L89.9457 26.2L90.2145 25.4L91.2222 25.6667ZM90.9535 4.6C90.9535 4.66667 90.8863 4.73333 90.8863 4.8C90.8863 4.86667 90.8191 4.93333 90.7519 5V5.6C90.7519 6.06667 90.6848 6.46667 90.6848 6.73333C90.416 8.53333 89.9457 9.86667 89.3411 10.7333C88.3333 12.0667 86.9897 12.9333 85.3773 13.2667V13.8L85.0413 14.0667L84.9742 14.6667C85.1085 14.9333 85.2429 15.1333 85.3773 15.4C85.3773 15.5333 85.3101 15.6 85.1085 15.7333V16.2C85.3101 16.3333 85.5788 16.7333 85.8476 17.2667C86.1163 17.8 86.3178 18.0667 86.4522 18.0667H88.4677V20.4H90.0129V22.9333H78.7261V20.4H80.2713V18H82.2868C82.4212 18 82.6899 17.6667 83.0258 17C83.2274 16.6 83.4289 16.3333 83.6305 16.2V15.7333C83.4289 15.6 83.3618 15.5333 83.3618 15.4C83.4961 15.1333 83.6305 14.8667 83.7649 14.6667L83.6977 14.0667L83.3618 13.8V13.2667C81.7494 12.8667 80.4057 12 79.3979 10.7333C78.8605 10.0667 78.4574 9 78.1886 7.53333C78.1214 7.06667 78.0543 6.4 77.9199 5.53333V5C77.8527 4.93333 77.7855 4.86667 77.7183 4.8C77.6512 4.73333 77.6512 4.66667 77.6512 4.6C77.6512 4.26667 77.9199 4.13333 78.3902 4.13333C78.8605 4.13333 79.1292 4.26667 79.1292 4.6C79.1292 4.66667 79.062 4.73333 79.062 4.8C79.062 4.86667 78.9948 4.93333 78.9277 5V5.6C79.1964 7.53333 79.3308 8.53333 79.3979 8.6C79.5323 9.13333 79.8682 9.66667 80.2713 10.1333C81.3463 11.4 82.6899 12.0667 84.168 12.2667V11.6C82.8243 11.3333 81.7494 10.6667 80.9432 9.6C80.4729 9.06667 80.2041 8.4 80.0026 7.6C79.8682 6.8 79.7339 6.13333 79.7339 5.53333V5C79.6667 4.93333 79.5995 4.86667 79.5323 4.8C79.4651 4.73333 79.4651 4.66667 79.4651 4.6C79.4651 4.26667 79.7338 4.13333 80.2041 4.13333C80.6744 4.13333 80.9432 4.26667 80.9432 4.6C80.9432 4.66667 80.876 4.73333 80.876 4.8C80.876 4.86667 80.8088 4.93333 80.7416 5V5.6C80.7416 6.33333 80.8088 7.06667 81.0103 7.66667C81.1447 8.33333 81.4134 8.8 81.6822 9.06667C82.1525 9.53333 82.6227 9.93333 82.9587 10.0667C83.2946 10.2667 83.7649 10.4 84.2351 10.4667V9.86667C83.3618 9.66667 82.6899 9.26667 82.2196 8.53333C82.0181 8.26667 81.8837 7.93333 81.8165 7.46667C81.7494 7 81.6822 6.53333 81.6822 6C81.6822 5.8 81.6822 5.66667 81.6822 5.6C81.6822 5.53333 81.6822 5.53333 81.6822 5.46667V5C81.615 4.93333 81.5478 4.86667 81.4806 4.8C81.4134 4.73333 81.4134 4.66667 81.4134 4.6C81.4134 4.26667 81.6822 4.13333 82.1525 4.13333C82.6227 4.13333 82.8915 4.26667 82.8915 4.6C82.8915 4.66667 82.8243 4.73333 82.8243 4.8C82.8243 4.86667 82.7571 4.93333 82.6899 5V6.26667C82.6899 6.46667 82.6899 6.73333 82.6899 7.06667C82.6899 7.4 82.8243 7.73333 83.093 8C83.3618 8.33333 83.5633 8.53333 83.6977 8.6C83.832 8.66667 84.0336 8.73333 84.3695 8.73333V5C84.3023 4.93333 84.2351 4.86667 84.168 4.8C83.4289 4.73333 83.4289 4.66667 83.4289 4.6C83.4289 4.26667 83.6977 4.13333 84.168 4.13333C84.6382 4.13333 84.907 4.26667 84.907 4.6C84.907 4.66667 84.8398 4.73333 84.8398 4.8C84.8398 4.86667 84.7726 4.93333 84.7054 5V8.73333C85.0413 8.73333 85.2429 8.73333 85.3101 8.66667C85.4444 8.53333 85.7132 8.33333 85.9819 7.93333C86.1163 7.73333 86.2506 7.46667 86.3178 7.13333C86.385 6.8 86.385 6.46667 86.385 6.13333V5C86.3178 4.93333 86.2507 4.86667 86.1835 4.8C86.1163 4.73333 86.1163 4.66667 86.1163 4.6C86.1163 4.26667 86.385 4.13333 86.8553 4.13333C87.3256 4.13333 87.5943 4.26667 87.5943 4.6C87.5943 4.66667 87.5271 4.73333 87.5271 4.8C87.5271 4.86667 87.4599 4.93333 87.3928 5V5.6C87.3928 5.8 87.3928 6 87.3928 6.06667C87.3928 6.53333 87.3256 7 87.2584 7.46667C87.1912 7.93333 87.0569 8.26667 86.8553 8.6C86.385 9.26667 85.646 9.73333 84.8398 9.93333V10.5333C85.3773 10.4667 85.7804 10.3333 86.1163 10.1333C86.4522 9.93333 86.8553 9.6 87.3928 9.13333C87.6615 8.86667 87.863 8.4 88.0646 7.73333C88.2661 7 88.3333 6.33333 88.3333 5.66667V5C88.2662 4.93333 88.199 4.86667 88.1318 4.8C88.0646 4.73333 88.0646 4.66667 88.0646 4.6C88.0646 4.26667 88.3333 4.13333 88.8036 4.13333C89.2739 4.13333 89.5426 4.26667 89.5426 4.6C89.5426 4.66667 89.4755 4.73333 89.4755 4.8C89.4755 4.86667 89.4083 4.93333 89.3411 5V5.6C89.3411 6.46667 89.2067 7.2 89.0052 7.93333C88.8036 8.6 88.5349 9.2 88.1318 9.66667C87.3256 10.7333 86.2506 11.4 84.907 11.6667V12.3333C85.7804 12.2 86.4522 12 87.0568 11.6667C87.6615 11.3333 88.199 10.8667 88.8036 10.1333C89.2739 9.6 89.5426 8.93333 89.7442 8.06667C89.7442 7.93333 89.8786 7.13333 90.1473 5.6V5C90.0801 4.93333 90.0129 4.86667 89.9457 4.8C89.8786 4.73333 89.8786 4.66667 89.8786 4.6C89.8786 4.26667 90.1473 4.13333 90.6176 4.13333C90.6848 4.13333 90.9535 4.26667 90.9535 4.6ZM95.3876 19.9333C95.4548 20.2667 95.4548 20.4667 95.4548 20.6667C95.4548 21.2 95.3204 21.6667 95.0517 22.0667C94.7829 22.4667 94.3798 22.8 93.7752 23.0667V23.6667C93.7752 23.8667 93.6408 24.2 93.4393 24.6C93.2377 25 92.969 25.4 92.6331 25.6667C92.2972 26 91.8941 26.2667 91.4238 26.4667L91.7597 25.5333C92.1628 25.4667 92.4987 25.2667 92.7674 24.9333C93.1705 24.4 93.3721 23.9333 93.3721 23.4667V22.8667C92.8346 22.7333 92.4315 22.4667 92.1628 22.0667C91.8941 21.6667 91.7597 21.1333 91.7597 20.4667C91.7597 20.2 91.7597 20 91.8269 19.8667C92.2972 20.2 92.6331 20.6667 92.969 21.1333C93.1705 21.4667 93.3049 21.8 93.4393 22.2V19.6667C92.9018 19.5333 92.4987 19.2667 92.23 18.8667C91.9612 18.4667 91.8269 17.9333 91.8269 17.2667C91.8269 17 91.8269 16.8 91.8941 16.6667C92.3643 17 92.7003 17.4667 93.0362 17.9333C93.2377 18.2667 93.3721 18.6 93.5065 19V16.4667C92.969 16.3333 92.5659 16.0667 92.2972 15.6667C92.0284 15.2667 91.8941 14.7333 91.8941 14.0667C91.8941 13.8 91.8941 13.6 91.9612 13.4667C92.4315 13.8 92.7674 14.2667 93.1034 14.7333C93.3049 15.0667 93.4393 15.4 93.5737 15.8V13.2667C93.0362 13.1333 92.6331 12.8667 92.3643 12.4667C92.0956 12.0667 91.9612 11.5333 91.9612 10.8667C91.9612 10.6 91.9612 10.4 92.0284 10.2667C92.4987 10.6 92.8346 11.0667 93.1705 11.5333C93.3721 11.8667 93.5065 12.2 93.6408 12.6V10.2C93.1034 10.0667 92.7003 9.8 92.4315 9.4C92.1628 9 92.0284 8.46667 92.0284 7.8C92.0284 7.53333 92.0284 7.33333 92.0956 7.2C92.5659 7.53333 92.9018 8 93.2377 8.46667C93.4393 8.8 93.5736 9.13333 93.708 9.53333V7.33333C93.1705 7.2 92.7674 6.93333 92.4987 6.53333C92.23 6.13333 92.0956 5.6 92.0956 4.93333C92.0956 4.66667 92.0956 4.46667 92.1628 4.33333C92.6331 4.73333 93.0362 5.06667 93.2377 5.46667C93.5065 5.86667 93.6408 6.26667 93.7752 6.66667C93.7752 6.26667 93.708 5.73333 93.5737 5.06667C93.4393 4.4 93.3721 3.93333 93.3721 3.66667C93.3721 3.53333 93.4393 3.2 93.6408 2.73333C93.708 2.6 93.7752 2.33333 93.9767 2C94.1111 2.26667 94.2455 2.46667 94.2455 2.6C94.447 3.06667 94.5814 3.53333 94.5814 3.86667C94.5814 4.13333 94.5142 4.6 94.3127 5.13333C94.1783 5.73333 94.0439 6.26667 94.0439 6.86667C94.1783 6.4 94.3798 5.93333 94.6486 5.46667C94.9845 5 95.2532 4.6 95.5892 4.4C95.6563 4.73333 95.6563 4.93333 95.6563 5.13333C95.6563 5.66667 95.522 6.13333 95.2532 6.53333C94.9845 6.93333 94.5814 7.26667 93.9767 7.53333V9.8C94.1111 9.33333 94.3127 8.86667 94.5814 8.4C94.9173 7.93333 95.1861 7.53333 95.522 7.33333C95.5892 7.6 95.5892 7.8 95.5892 7.93333C95.5892 8.6 95.3204 9.2 94.8501 9.73333C94.5814 10.0667 94.2455 10.3333 93.9096 10.4667V13C94.0439 12.5333 94.2455 12.0667 94.5142 11.6C94.8501 11.1333 95.1189 10.7333 95.4548 10.5333C95.522 10.8667 95.522 11.0667 95.522 11.2667C95.522 11.8 95.3876 12.2667 95.1189 12.6667C94.8501 13.0667 94.447 13.4 93.8424 13.6667V16C93.9767 15.5333 94.1783 15.0667 94.447 14.6C94.7829 14.1333 95.0517 13.7333 95.3876 13.5333C95.4548 13.8667 95.4548 14.0667 95.4548 14.2667C95.4548 14.8 95.3204 15.2667 95.0517 15.6667C94.7829 16.0667 94.3798 16.4 93.7752 16.6667V19.3333C93.9096 18.8667 94.1111 18.4 94.3798 17.9333C94.7158 17.4667 94.9845 17.0667 95.3204 16.8667C95.3876 17.2 95.3876 17.4 95.3876 17.6C95.3876 18.1333 95.2532 18.6 94.9845 19C94.7158 19.4 94.3127 19.7333 93.708 20V22.6C93.8424 22.1333 94.0439 21.6667 94.3127 21.2C94.7158 20.5333 95.0517 20.2 95.3876 19.9333ZM95.8579 23.2667V1.06667H72.0078V23.2667C72.0078 24.2667 72.1421 25.1333 72.3437 25.8C72.6124 26.5333 73.0155 27.1333 73.6873 27.7333C74.7623 28.6667 76.509 29.2 78.9277 29.4C81.3463 29.6 83.0258 30.0667 83.8992 30.8C84.7726 30.0667 86.4522 29.6 88.8708 29.4C91.2894 29.2 93.0362 28.6667 94.1111 27.7333C94.7158 27.1333 95.186 26.5333 95.4548 25.8667C95.7235 25.1333 95.8579 24.2667 95.8579 23.2667ZM96.9328 23.4C96.9328 24.6 96.7985 25.5333 96.5297 26.2667C96.261 27 95.7235 27.7333 94.9173 28.4C93.6408 29.5333 91.6925 30.2 89.0723 30.3333C86.4522 30.4667 84.7726 31.0667 83.9664 32C83.1602 31 81.4806 30.4667 78.8605 30.3333C76.2403 30.2 74.292 29.5333 73.0155 28.4C72.2093 27.7333 71.739 27 71.4031 26.2667C71.1344 25.4667 71 24.5333 71 23.4V0H97V23.4H96.9328Z" fill="#5B6676"/>
<path d="M6.01179 5.577C6.10712 5.577 6.18079 5.603 6.23279 5.655C6.28479 5.707 6.31079 5.78067 6.31079 5.876V9.464C6.31079 10.2267 6.05946 10.9157 5.55679 11.531C5.06279 12.1377 4.39112 12.5667 3.54179 12.818L0.707789 13.715C0.681789 13.7237 0.647122 13.728 0.603789 13.728C0.534456 13.728 0.473789 13.7063 0.421789 13.663C0.369789 13.6197 0.343789 13.5633 0.343789 13.494V13.091C0.343789 12.8917 0.413122 12.7703 0.551789 12.727L2.25479 12.168L0.564789 6.097C0.521456 5.94967 0.499789 5.863 0.499789 5.837C0.499789 5.76767 0.525789 5.707 0.577789 5.655C0.629789 5.603 0.690456 5.577 0.759789 5.577H1.35779C1.43579 5.577 1.50079 5.59867 1.55279 5.642C1.60479 5.67667 1.63946 5.72 1.65679 5.772L3.32079 11.804C4.00546 11.5613 4.48212 11.219 4.75079 10.777C5.02812 10.335 5.16679 9.78033 5.16679 9.113V5.876C5.16679 5.78933 5.19279 5.72 5.24479 5.668C5.30546 5.60733 5.37912 5.577 5.46579 5.577H6.01179ZM13.593 5.577C13.6797 5.577 13.749 5.60733 13.801 5.668C13.8617 5.72 13.892 5.78933 13.892 5.876V6.292C13.892 6.37867 13.8617 6.448 13.801 6.5C13.749 6.552 13.6797 6.578 13.593 6.578H12.826C12.7047 6.708 12.605 6.91167 12.527 7.189C12.4577 7.46633 12.423 7.77833 12.423 8.125V12.714C12.423 12.8007 12.3927 12.87 12.332 12.922C12.2714 12.974 12.1977 13 12.111 13H11.565C11.4784 13 11.409 12.974 11.357 12.922C11.305 12.87 11.279 12.8007 11.279 12.714V8.047C11.279 7.69167 11.3094 7.38833 11.37 7.137C11.4307 6.88567 11.513 6.69933 11.617 6.578H8.02902C7.94236 6.578 7.86869 6.552 7.80802 6.5C7.75602 6.448 7.73002 6.37867 7.73002 6.292V5.876C7.73002 5.78933 7.75602 5.72 7.80802 5.668C7.86869 5.60733 7.94236 5.577 8.02902 5.577H13.593ZM18.8404 5.577C19.3777 5.577 19.8544 5.707 20.2704 5.967C20.695 6.21833 21.0244 6.58233 21.2584 7.059C21.501 7.53567 21.6224 8.099 21.6224 8.749V12.701C21.6224 12.7877 21.592 12.8613 21.5314 12.922C21.4794 12.974 21.41 13 21.3234 13H17.9694C17.8827 13 17.809 12.974 17.7484 12.922C17.6964 12.8613 17.6704 12.7877 17.6704 12.701V12.285C17.6704 12.1983 17.6964 12.129 17.7484 12.077C17.809 12.0163 17.8827 11.986 17.9694 11.986H20.4784V8.827C20.4784 8.16833 20.3094 7.63533 19.9714 7.228C19.642 6.812 19.2217 6.604 18.7104 6.604H17.3454L16.3314 12.688C16.3227 12.7747 16.288 12.8483 16.2274 12.909C16.1667 12.9697 16.093 13 16.0064 13H15.4604C15.3737 13 15.3044 12.9697 15.2524 12.909C15.209 12.8483 15.1917 12.7747 15.2004 12.688L16.2404 6.604H15.5774C15.4907 6.604 15.417 6.578 15.3564 6.526C15.3044 6.46533 15.2784 6.39167 15.2784 6.305V5.876C15.2784 5.78933 15.3044 5.72 15.3564 5.668C15.417 5.60733 15.4907 5.577 15.5774 5.577H18.8404ZM28.8126 13C28.7259 13 28.6522 12.974 28.5916 12.922C28.5396 12.8613 28.5136 12.7877 28.5136 12.701V8.814C28.5136 7.32333 27.7726 6.578 26.2906 6.578H23.8726C23.7859 6.578 23.7122 6.552 23.6516 6.5C23.5996 6.448 23.5736 6.37867 23.5736 6.292V5.876C23.5736 5.78933 23.5996 5.72 23.6516 5.668C23.7122 5.60733 23.7859 5.577 23.8726 5.577H26.3556C28.5569 5.577 29.6576 6.643 29.6576 8.775V12.701C29.6576 12.7877 29.6316 12.8613 29.5796 12.922C29.5276 12.974 29.4582 13 29.3716 13H28.8126ZM23.8726 13C23.7859 13 23.7122 12.974 23.6516 12.922C23.5996 12.8613 23.5736 12.7877 23.5736 12.701V8.333C23.5736 8.24633 23.5996 8.177 23.6516 8.125C23.7122 8.06433 23.7859 8.034 23.8726 8.034H24.4186C24.5052 8.034 24.5746 8.06433 24.6266 8.125C24.6872 8.177 24.7176 8.24633 24.7176 8.333V12.701C24.7176 12.7877 24.6872 12.8613 24.6266 12.922C24.5746 12.974 24.5052 13 24.4186 13H23.8726ZM39.7961 5.577C39.8828 5.577 39.9521 5.60733 40.0041 5.668C40.0648 5.72 40.0951 5.78933 40.0951 5.876V6.292C40.0951 6.37867 40.0648 6.448 40.0041 6.5C39.9521 6.552 39.8828 6.578 39.7961 6.578H39.0291C38.9078 6.708 38.8081 6.91167 38.7301 7.189C38.6608 7.46633 38.6261 7.77833 38.6261 8.125V12.714C38.6261 12.8007 38.5958 12.87 38.5351 12.922C38.4745 12.974 38.4008 13 38.3141 13H37.7681C37.6815 13 37.6121 12.974 37.5601 12.922C37.5081 12.87 37.4821 12.8007 37.4821 12.714V8.047C37.4821 7.69167 37.5125 7.38833 37.5731 7.137C37.6338 6.88567 37.7161 6.69933 37.8201 6.578H34.2321C34.1455 6.578 34.0718 6.552 34.0111 6.5C33.9591 6.448 33.9331 6.37867 33.9331 6.292V5.876C33.9331 5.78933 33.9591 5.72 34.0111 5.668C34.0718 5.60733 34.1455 5.577 34.2321 5.577H39.7961ZM45.9145 13C45.8278 13 45.7541 12.974 45.6935 12.922C45.6415 12.8613 45.6155 12.7877 45.6155 12.701V8.814C45.6155 7.32333 44.8701 6.578 43.3795 6.578H41.7025C41.6158 6.578 41.5421 6.552 41.4815 6.5C41.4295 6.448 41.4035 6.37867 41.4035 6.292V5.876C41.4035 5.78933 41.4295 5.72 41.4815 5.668C41.5421 5.60733 41.6158 5.577 41.7025 5.577H43.4575C45.6588 5.577 46.7595 6.63433 46.7595 8.749V12.701C46.7595 12.7877 46.7291 12.8613 46.6685 12.922C46.6165 12.974 46.5471 13 46.4605 13H45.9145ZM55.7953 5.577C55.8906 5.577 55.9643 5.603 56.0163 5.655C56.0683 5.707 56.0943 5.78067 56.0943 5.876V9.49C56.0943 10.218 55.9426 10.8593 55.6393 11.414C55.3446 11.96 54.9243 12.3803 54.3783 12.675C53.841 12.961 53.2213 13.0953 52.5193 13.078H51.5573C51.0026 13.078 50.5 12.948 50.0493 12.688C49.5986 12.428 49.2433 12.064 48.9833 11.596C48.7233 11.1193 48.5933 10.5733 48.5933 9.958V5.876C48.5933 5.78933 48.6193 5.72 48.6713 5.668C48.732 5.60733 48.8056 5.577 48.8923 5.577H49.3993C49.486 5.577 49.5553 5.60733 49.6073 5.668C49.668 5.72 49.6983 5.78933 49.6983 5.876L49.7373 9.568C50.526 9.50733 51.0763 9.295 51.3883 8.931C51.7003 8.567 51.8563 8.09033 51.8563 7.501V5.876C51.8563 5.78933 51.8823 5.72 51.9343 5.668C51.9863 5.60733 52.0556 5.577 52.1423 5.577H52.6493C52.736 5.577 52.8053 5.60733 52.8573 5.668C52.918 5.72 52.9483 5.78933 52.9483 5.876V7.553C52.9483 8.385 52.684 9.06967 52.1553 9.607C51.6266 10.1443 50.851 10.439 49.8283 10.491C49.967 10.9937 50.2226 11.3837 50.5953 11.661C50.9766 11.9297 51.4316 12.064 51.9603 12.064H52.3763C53.1996 12.0727 53.841 11.8343 54.3003 11.349C54.7596 10.8637 54.9893 10.218 54.9893 9.412V5.876C54.9893 5.78933 55.0153 5.72 55.0673 5.668C55.128 5.60733 55.2016 5.577 55.2883 5.577H55.7953ZM61.2808 5.577C61.8181 5.577 62.2948 5.707 62.7108 5.967C63.1354 6.21833 63.4648 6.58233 63.6988 7.059C63.9414 7.53567 64.0628 8.099 64.0628 8.749V12.701C64.0628 12.7877 64.0324 12.8613 63.9718 12.922C63.9198 12.974 63.8504 13 63.7638 13H60.4098C60.3231 13 60.2494 12.974 60.1888 12.922C60.1368 12.8613 60.1108 12.7877 60.1108 12.701V12.285C60.1108 12.1983 60.1368 12.129 60.1888 12.077C60.2494 12.0163 60.3231 11.986 60.4098 11.986H62.9188V8.827C62.9188 8.16833 62.7498 7.63533 62.4118 7.228C62.0824 6.812 61.6621 6.604 61.1508 6.604H59.7858L58.7718 12.688C58.7631 12.7747 58.7284 12.8483 58.6678 12.909C58.6071 12.9697 58.5334 13 58.4468 13H57.9008C57.8141 13 57.7448 12.9697 57.6928 12.909C57.6494 12.8483 57.6321 12.7747 57.6408 12.688L58.6808 6.604H58.0178C57.9311 6.604 57.8574 6.578 57.7968 6.526C57.7448 6.46533 57.7188 6.39167 57.7188 6.305V5.876C57.7188 5.78933 57.7448 5.72 57.7968 5.668C57.8574 5.60733 57.9311 5.577 58.0178 5.577H61.2808ZM9.28718 25C9.20051 25 9.12685 24.974 9.06618 24.922C9.01418 24.8613 8.98818 24.7877 8.98818 24.701V20.814C8.98818 19.3233 8.24718 18.578 6.76518 18.578H4.34718C4.26051 18.578 4.18685 18.552 4.12618 18.5C4.07418 18.448 4.04818 18.3787 4.04818 18.292V17.876C4.04818 17.7893 4.07418 17.72 4.12618 17.668C4.18685 17.6073 4.26051 17.577 4.34718 17.577H6.83018C9.03151 17.577 10.1322 18.643 10.1322 20.775V24.701C10.1322 24.7877 10.1062 24.8613 10.0542 24.922C10.0022 24.974 9.93285 25 9.84618 25H9.28718ZM4.34718 25C4.26051 25 4.18685 24.974 4.12618 24.922C4.07418 24.8613 4.04818 24.7877 4.04818 24.701V20.333C4.04818 20.2463 4.07418 20.177 4.12618 20.125C4.18685 20.0643 4.26051 20.034 4.34718 20.034H4.89318C4.97985 20.034 5.04918 20.0643 5.10118 20.125C5.16185 20.177 5.19218 20.2463 5.19218 20.333V24.701C5.19218 24.7877 5.16185 24.8613 5.10118 24.922C5.04918 24.974 4.97985 25 4.89318 25H4.34718ZM12.2923 21.984C12.2056 21.984 12.132 21.958 12.0713 21.906C12.0193 21.8453 11.9933 21.7717 11.9933 21.685V17.876C11.9933 17.7893 12.0193 17.72 12.0713 17.668C12.132 17.6073 12.2056 17.577 12.2923 17.577H12.8643C12.951 17.577 13.0203 17.6073 13.0723 17.668C13.133 17.72 13.1633 17.7893 13.1633 17.876V21.685C13.1633 21.7717 13.133 21.8453 13.0723 21.906C13.0203 21.958 12.951 21.984 12.8643 21.984H12.2923ZM19.3701 24.701C19.3788 24.7877 19.3528 24.8613 19.2921 24.922C19.2401 24.974 19.1664 25 19.0711 25H18.4991C18.3431 25 18.2478 24.9003 18.2131 24.701L17.9141 23.18C17.5934 23.674 17.2251 24.0597 16.8091 24.337C16.4884 24.5537 16.1894 24.7227 15.9121 24.844C15.6348 24.9567 15.3401 25.0433 15.0281 25.104L14.9371 25.117C14.7898 25.117 14.7161 25.0477 14.7161 24.909V24.298C14.7161 24.1507 14.8071 24.0423 14.9891 23.973C15.0151 23.9643 15.1841 23.908 15.4961 23.804C15.8168 23.6913 16.1028 23.5527 16.3541 23.388C16.6141 23.2233 16.8698 22.998 17.1211 22.712C17.3724 22.4173 17.5501 22.14 17.6541 21.88L17.4201 20.71C17.3161 20.1987 17.2034 19.7957 17.0821 19.501C16.9694 19.1977 16.8134 18.968 16.6141 18.812C16.4148 18.656 16.1504 18.578 15.8211 18.578H15.3531C15.2664 18.578 15.1928 18.552 15.1321 18.5C15.0801 18.448 15.0541 18.3787 15.0541 18.292V17.85C15.0541 17.7633 15.0801 17.694 15.1321 17.642C15.1928 17.5813 15.2664 17.551 15.3531 17.551H15.8341C16.3888 17.551 16.8438 17.6637 17.1991 17.889C17.5544 18.1143 17.8361 18.448 18.0441 18.89C18.2521 19.332 18.4298 19.917 18.5771 20.645L19.3701 24.701ZM21.1685 25C21.0818 25 21.0081 24.974 20.9475 24.922C20.8955 24.8613 20.8695 24.7877 20.8695 24.701V17.876C20.8695 17.7893 20.8955 17.72 20.9475 17.668C21.0081 17.6073 21.0818 17.577 21.1685 17.577H21.7405C21.8271 17.577 21.8965 17.6073 21.9485 17.668C22.0091 17.72 22.0395 17.7893 22.0395 17.876V24.701C22.0395 24.7877 22.0091 24.8613 21.9485 24.922C21.8965 24.974 21.8271 25 21.7405 25H21.1685ZM25.941 17.577C26.7297 17.577 27.3537 17.6897 27.813 17.915C28.281 18.1403 28.619 18.5 28.827 18.994C29.035 19.488 29.139 20.1467 29.139 20.97C29.139 22.0793 28.866 22.946 28.32 23.57C27.774 24.1853 27.0633 24.6403 26.188 24.935L25.642 25.117C25.6247 25.1257 25.5943 25.13 25.551 25.13C25.4903 25.13 25.434 25.1083 25.382 25.065C25.3387 25.0217 25.317 24.961 25.317 24.883V24.311C25.317 24.2417 25.343 24.1767 25.395 24.116C25.447 24.0467 25.5163 23.9947 25.603 23.96L26.11 23.765C26.708 23.5397 27.1673 23.2147 27.488 22.79C27.8087 22.3653 27.969 21.7413 27.969 20.918C27.969 20.3373 27.8997 19.8823 27.761 19.553C27.6223 19.215 27.3927 18.9723 27.072 18.825C26.76 18.6777 26.3267 18.604 25.772 18.604H25.369H25.33L24.134 18.591C24.0473 18.591 23.9737 18.565 23.913 18.513C23.861 18.461 23.835 18.3917 23.835 18.305V16.069C23.835 15.9823 23.861 15.913 23.913 15.861C23.9737 15.8003 24.0473 15.77 24.134 15.77H24.654C24.7407 15.77 24.81 15.8003 24.862 15.861C24.914 15.913 24.94 15.9823 24.94 16.069V17.577H25.681H25.941ZM31.1597 25C31.073 25 30.9993 24.974 30.9387 24.922C30.8867 24.8613 30.8607 24.7877 30.8607 24.701V17.876C30.8607 17.7893 30.8867 17.72 30.9387 17.668C30.9993 17.6073 31.073 17.577 31.1597 17.577H31.7317C31.8183 17.577 31.8877 17.6073 31.9397 17.668C32.0003 17.72 32.0307 17.7893 32.0307 17.876V24.701C32.0307 24.7877 32.0003 24.8613 31.9397 24.922C31.8877 24.974 31.8183 25 31.7317 25H31.1597ZM37.6742 24.701C37.6829 24.7877 37.6569 24.8613 37.5962 24.922C37.5442 24.974 37.4705 25 37.3752 25H36.8032H33.9172C33.8305 25 33.7569 24.974 33.6962 24.922C33.6442 24.8613 33.6182 24.7877 33.6182 24.701V24.285C33.6182 24.1983 33.6442 24.129 33.6962 24.077C33.7569 24.0163 33.8305 23.986 33.9172 23.986H36.4652L36.2572 20.684C36.2225 20.1293 36.1792 19.7177 36.1272 19.449C36.0839 19.1803 35.9799 18.9637 35.8152 18.799C35.6505 18.6343 35.3905 18.552 35.0352 18.552H34.5152C34.4285 18.552 34.3549 18.526 34.2942 18.474C34.2422 18.422 34.2162 18.3527 34.2162 18.266V17.85C34.2162 17.7633 34.2422 17.694 34.2942 17.642C34.3549 17.5813 34.4285 17.551 34.5152 17.551H35.0482C35.6722 17.551 36.1489 17.6767 36.4782 17.928C36.8162 18.1707 37.0459 18.5087 37.1672 18.942C37.2972 19.3753 37.3839 19.943 37.4272 20.645L37.6742 24.701ZM39.6275 25C39.5408 25 39.4671 24.974 39.4065 24.922C39.3545 24.8613 39.3285 24.7877 39.3285 24.701V24.272C39.3285 24.1853 39.3545 24.116 39.4065 24.064C39.4671 24.0033 39.5408 23.973 39.6275 23.973H41.4865C42.2405 23.973 42.7951 23.7823 43.1505 23.401C43.5058 23.0197 43.7008 22.465 43.7355 21.737C43.7441 21.6157 43.7485 21.464 43.7485 21.282C43.7485 21.1087 43.7441 20.9613 43.7355 20.84C43.7095 20.1033 43.5145 19.5487 43.1505 19.176C42.7951 18.7947 42.2405 18.604 41.4865 18.604H39.6275C39.5408 18.604 39.4671 18.578 39.4065 18.526C39.3545 18.4653 39.3285 18.3917 39.3285 18.305V17.876C39.3285 17.7893 39.3545 17.72 39.4065 17.668C39.4671 17.6073 39.5408 17.577 39.6275 17.577H41.5515C42.6608 17.577 43.4798 17.8543 44.0085 18.409C44.5371 18.955 44.8188 19.748 44.8535 20.788C44.8621 20.9093 44.8665 21.074 44.8665 21.282C44.8665 21.49 44.8621 21.659 44.8535 21.789C44.8188 22.829 44.5371 23.6263 44.0085 24.181C43.4798 24.727 42.6608 25 41.5515 25H39.6275ZM49.7882 25.13C48.6615 25.13 47.8338 24.8613 47.3052 24.324C46.7852 23.778 46.5252 22.985 46.5252 21.945V17.876C46.5252 17.7893 46.5512 17.72 46.6032 17.668C46.6638 17.6073 46.7375 17.577 46.8242 17.577H47.3312C47.4178 17.577 47.4872 17.6073 47.5392 17.668C47.5998 17.72 47.6302 17.7893 47.6302 17.876V21.88C47.6302 22.5993 47.8078 23.1497 48.1632 23.531C48.5272 23.9123 49.0688 24.103 49.7882 24.103C50.5075 24.103 51.0362 23.9297 51.3742 23.583C51.7208 23.2277 51.9028 22.6947 51.9202 21.984V21.581V20.645C51.9115 19.9343 51.7642 19.4057 51.4782 19.059C51.1922 18.7123 50.7978 18.539 50.2952 18.539C50.1478 18.539 49.9745 18.5693 49.7752 18.63C49.5845 18.682 49.4242 18.7513 49.2942 18.838C49.2508 18.864 49.2075 18.877 49.1642 18.877C49.1035 18.877 49.0472 18.8553 48.9952 18.812C48.9518 18.76 48.9302 18.7037 48.9302 18.643V18.266C48.9302 18.162 48.9388 18.0797 48.9562 18.019C48.9735 17.9583 49.0168 17.9063 49.0862 17.863C49.2682 17.7417 49.4588 17.655 49.6582 17.603C49.8662 17.5423 50.1262 17.512 50.4382 17.512C52.1455 17.512 53.0165 18.513 53.0512 20.515C53.0598 20.6017 53.0642 20.8573 53.0642 21.282C53.0642 21.7067 53.0598 21.9623 53.0512 22.049C53.0165 23.089 52.7435 23.8647 52.2322 24.376C51.7295 24.8787 50.9148 25.13 49.7882 25.13ZM60.0303 25C59.9437 25 59.87 24.974 59.8093 24.922C59.7573 24.8613 59.7313 24.7877 59.7313 24.701V20.814C59.7313 19.3233 58.9903 18.578 57.5083 18.578H55.0903C55.0037 18.578 54.93 18.552 54.8693 18.5C54.8173 18.448 54.7913 18.3787 54.7913 18.292V17.876C54.7913 17.7893 54.8173 17.72 54.8693 17.668C54.93 17.6073 55.0037 17.577 55.0903 17.577H57.5733C59.7747 17.577 60.8753 18.643 60.8753 20.775V24.701C60.8753 24.7877 60.8493 24.8613 60.7973 24.922C60.7453 24.974 60.676 25 60.5893 25H60.0303ZM55.0903 25C55.0037 25 54.93 24.974 54.8693 24.922C54.8173 24.8613 54.7913 24.7877 54.7913 24.701V20.333C54.7913 20.2463 54.8173 20.177 54.8693 20.125C54.93 20.0643 55.0037 20.034 55.0903 20.034H55.6363C55.723 20.034 55.7923 20.0643 55.8443 20.125C55.905 20.177 55.9353 20.2463 55.9353 20.333V24.701C55.9353 24.7877 55.905 24.8613 55.8443 24.922C55.7923 24.974 55.723 25 55.6363 25H55.0903ZM63.1265 25C63.0398 25 62.9661 24.974 62.9055 24.922C62.8535 24.8613 62.8275 24.7877 62.8275 24.701V17.876C62.8275 17.7893 62.8535 17.72 62.9055 17.668C62.9661 17.6073 63.0398 17.577 63.1265 17.577H63.6985C63.7851 17.577 63.8545 17.6073 63.9065 17.668C63.9671 17.72 63.9975 17.7893 63.9975 17.876V24.701C63.9975 24.7877 63.9671 24.8613 63.9065 24.922C63.8545 24.974 63.7851 25 63.6985 25H63.1265Z" fill="#5B6676"/>
</svg>
