<svg width="115" height="37" viewBox="0 0 115 37" fill="none" xmlns="http://www.w3.org/2000/svg">
<path d="M99.5478 21.0667V20.7333H96.8605V22.4H97.1964V21.0667H99.5478ZM99.8165 18.7333V18.4H98.4057V20.2H98.7416V18.7333H99.8165ZM103.176 20.8V20.4667H100.018V22.4667H100.354V20.8H103.176ZM103.176 18.6667V18.3333H100.22V20H100.556V18.6667H103.176ZM103.78 22.4H107.341V20.7333H103.78V22.4ZM103.579 20.0667H105.796V18.4667H103.579V20.0667ZM97.9354 26.9333C97.801 27.4667 97.4651 27.8 96.7933 27.9333C96.6589 27.9333 96.5245 27.9333 96.323 28L96.4574 27.4C96.6589 27.3333 96.7933 27.3333 96.8605 27.3333C97.1292 27.2667 97.2636 27.2 97.2636 27.0667V26.2667H95.584V24.4L95.7183 24.1333L95.2481 23.8667L95.5168 23.4L96.3902 23.4667L96.2558 23.9333V25.5333H97.8682L98.0698 25.6667V26.9333H97.9354ZM101.295 27.5333L101.026 28.1333L99.1447 26.6667V27.5333H99.7494L99.5478 28.1333H98.5401L98.4057 28L98.5401 27.6667C98.5401 27.4 98.6072 27.2 98.6072 27.0667C98.6072 26.6 98.5401 26.3333 98.4729 26.2L98.876 25.6667L100.421 26.8H100.69V26.3333L100.287 26.2L100.556 25.5333L101.429 25.6667V26.8L101.026 27.1333L101.295 27.5333ZM103.915 27.8L103.176 28.1333V26.4H101.899L101.63 26.2L101.899 25.5333C102.235 25.6 102.504 25.6 102.773 25.6C102.907 25.6 103.109 25.6 103.176 25.6C103.31 25.6 103.377 25.6 103.512 25.5333L103.848 25.6667V27.8H103.915ZM94.7778 26.5333C94.3075 26.3333 93.9044 26.0667 93.5685 25.7333C93.2326 25.4 92.9638 25.0667 92.7623 24.6667C92.5607 24.2667 92.4935 23.9333 92.4935 23.7333V23.1333C91.9561 22.8667 91.553 22.5333 91.2171 22.1333C90.9483 21.7333 90.814 21.2667 90.814 20.6667C90.814 20.5333 90.814 20.3333 90.8811 20C91.2171 20.2667 91.553 20.6 91.8217 21.0667C92.0904 21.5333 92.292 22 92.4264 22.4667V19.8667C91.8889 19.6 91.4858 19.2667 91.1499 18.8667C90.8811 18.4667 90.7468 18 90.7468 17.4C90.7468 17.2667 90.7468 17.0667 90.814 16.7333C91.1499 17 91.4858 17.3333 91.7545 17.8C92.0233 18.2667 92.2248 18.7333 92.3592 19.2V16.5333C91.8217 16.2667 91.4186 15.9333 91.0827 15.5333C90.814 15.1333 90.6796 14.6667 90.6796 14.0667C90.6796 13.9333 90.6796 13.7333 90.7468 13.4C91.0827 13.6667 91.4186 14 91.6873 14.4667C91.9561 14.9333 92.1576 15.4 92.292 15.8667V13.5333C91.7545 13.2667 91.3514 12.9333 91.0155 12.5333C90.7468 12.1333 90.6124 11.6667 90.6124 11.0667C90.6124 10.9333 90.6124 10.7333 90.6796 10.4C91.0155 10.6667 91.3514 11 91.6202 11.4667C91.8889 11.9333 92.0904 12.4 92.2248 12.8667V10.3333C91.7545 10.0667 91.3514 9.73333 91.0155 9.26667C90.6796 8.8 90.5452 8.33333 90.5452 7.8C90.5452 7.66667 90.5452 7.46667 90.6124 7.2C90.9483 7.46667 91.2842 7.8 91.553 8.26667C91.8217 8.73333 92.0233 9.2 92.1576 9.66667V7.4C91.6202 7.13333 91.2171 6.8 90.8811 6.4C90.6124 6 90.478 5.53333 90.478 4.93333C90.478 4.8 90.478 4.6 90.5452 4.26667C90.8811 4.53333 91.2171 4.86667 91.4858 5.33333C91.7545 5.8 91.9561 6.26667 92.0904 6.73333C92.0904 6.13333 92.0233 5.6 91.8217 5C91.6873 4.4 91.553 4 91.553 3.73333C91.553 3.33333 91.6202 2.86667 91.8217 2.46667C91.8889 2.33333 91.9561 2.13333 92.1576 1.86667C92.292 2.2 92.4264 2.4 92.4264 2.53333C92.6279 3.06667 92.7623 3.4 92.7623 3.53333C92.7623 3.86667 92.6951 4.26667 92.6279 4.66667C92.4264 5.6 92.3592 6.2 92.3592 6.46667C92.4935 6.06667 92.5607 5.8 92.6279 5.66667C92.8966 5.13333 93.3669 4.66667 93.9716 4.13333C93.9716 4.26667 94.0388 4.4 94.0388 4.46667C94.0388 4.53333 94.0388 4.66667 94.0388 4.73333C94.0388 5.6 93.77 6.2 93.2997 6.66667C93.031 6.86667 92.7623 7.06667 92.3592 7.13333V9.33333C92.4935 8.93333 92.6279 8.6 92.8295 8.33333C93.1654 7.86667 93.5013 7.4 93.9716 7C93.9716 7.13333 94.0388 7.26667 94.0388 7.33333C94.0388 7.4 94.0388 7.53333 94.0388 7.6C94.0388 8.46667 93.77 9.06667 93.2997 9.53333C93.031 9.73333 92.7623 9.93333 92.3592 10V12.4C92.4935 12 92.6279 11.6667 92.8295 11.4C93.1654 10.9333 93.5013 10.4667 93.9716 10.0667C93.9716 10.2 94.0388 10.3333 94.0388 10.4C94.0388 10.4667 94.0388 10.6 94.0388 10.6667C94.0388 11.5333 93.77 12.1333 93.2997 12.6C93.031 12.8 92.7623 13 92.3592 13.0667V15.6C92.4935 15.2 92.6279 14.8667 92.8295 14.6C93.1654 14.1333 93.5013 13.6667 93.9716 13.2667C93.9716 13.4 94.0388 13.5333 94.0388 13.6C94.0388 13.6667 94.0388 13.8 94.0388 13.8667C94.0388 14.7333 93.77 15.3333 93.2997 15.8C93.031 16 92.7623 16.2 92.3592 16.2667V18.8C92.4935 18.4 92.6279 18.0667 92.8295 17.8C93.1654 17.3333 93.5013 16.8667 93.9716 16.4667C93.9716 16.6 94.0388 16.7333 94.0388 16.8C94.0388 16.8667 94.0388 17 94.0388 17.0667C94.0388 17.9333 93.77 18.5333 93.2997 19C93.031 19.2 92.7623 19.4 92.3592 19.4667V22C92.4935 21.6 92.6279 21.2667 92.8295 21C93.1654 20.5333 93.5013 20.0667 93.9716 19.6667C93.9716 19.8 94.0388 19.9333 94.0388 20C94.0388 20.0667 94.0388 20.2 94.0388 20.2667C94.0388 21.1333 93.77 21.7333 93.2997 22.2C93.031 22.4 92.7623 22.6 92.3592 22.6667V23.2667C92.3592 23.6 92.4935 24 92.7623 24.4C93.0982 25 93.5685 25.3333 94.0388 25.4L94.7778 26.5333ZM107.677 25.6L107.543 26.9333L107.072 27.8L104.519 28.1333L104.587 26.8L104.855 26.5333L104.385 26.2L104.788 25.4667L105.594 25.6L105.258 26.4L105.393 27.2C105.46 27.2 105.46 27.1333 105.527 27.1333C105.729 27 105.93 26.7333 105.997 26.4L105.729 26.0667L106.065 25.4667H106.736L106.333 27.2C106.871 27.2 107.14 27 107.14 26.6C107.14 26.4667 107.072 26.3333 106.938 26.2L107.072 25.4667H107.677V25.6ZM109.222 25.6667L108.953 26.9333L108.416 27.0667V26.4667L107.946 26.2L108.214 25.4L109.222 25.6667ZM108.953 4.6C108.953 4.66667 108.886 4.73333 108.886 4.8C108.886 4.86667 108.819 4.93333 108.752 5V5.6C108.752 6.06667 108.685 6.46667 108.685 6.73333C108.416 8.53333 107.946 9.86667 107.341 10.7333C106.333 12.0667 104.99 12.9333 103.377 13.2667V13.8L103.041 14.0667L102.974 14.6667C103.109 14.9333 103.243 15.1333 103.377 15.4C103.377 15.5333 103.31 15.6 103.109 15.7333V16.2C103.31 16.3333 103.579 16.7333 103.848 17.2667C104.116 17.8 104.318 18.0667 104.452 18.0667H106.468V20.4H108.013V22.9333H96.7261V20.4H98.2713V18H100.287C100.421 18 100.69 17.6667 101.026 17C101.227 16.6 101.429 16.3333 101.63 16.2V15.7333C101.429 15.6 101.362 15.5333 101.362 15.4C101.496 15.1333 101.63 14.8667 101.765 14.6667L101.698 14.0667L101.362 13.8V13.2667C99.7494 12.8667 98.4057 12 97.3979 10.7333C96.8605 10.0667 96.4574 9 96.1886 7.53333C96.1214 7.06667 96.0543 6.4 95.9199 5.53333V5C95.8527 4.93333 95.7855 4.86667 95.7183 4.8C95.6512 4.73333 95.6512 4.66667 95.6512 4.6C95.6512 4.26667 95.9199 4.13333 96.3902 4.13333C96.8605 4.13333 97.1292 4.26667 97.1292 4.6C97.1292 4.66667 97.062 4.73333 97.062 4.8C97.062 4.86667 96.9948 4.93333 96.9277 5V5.6C97.1964 7.53333 97.3308 8.53333 97.3979 8.6C97.5323 9.13333 97.8682 9.66667 98.2713 10.1333C99.3463 11.4 100.69 12.0667 102.168 12.2667V11.6C100.824 11.3333 99.7494 10.6667 98.9432 9.6C98.4729 9.06667 98.2041 8.4 98.0026 7.6C97.8682 6.8 97.7339 6.13333 97.7339 5.53333V5C97.6667 4.93333 97.5995 4.86667 97.5323 4.8C97.4651 4.73333 97.4651 4.66667 97.4651 4.6C97.4651 4.26667 97.7338 4.13333 98.2041 4.13333C98.6744 4.13333 98.9432 4.26667 98.9432 4.6C98.9432 4.66667 98.876 4.73333 98.876 4.8C98.876 4.86667 98.8088 4.93333 98.7416 5V5.6C98.7416 6.33333 98.8088 7.06667 99.0103 7.66667C99.1447 8.33333 99.4134 8.8 99.6822 9.06667C100.152 9.53333 100.623 9.93333 100.959 10.0667C101.295 10.2667 101.765 10.4 102.235 10.4667V9.86667C101.362 9.66667 100.69 9.26667 100.22 8.53333C100.018 8.26667 99.8837 7.93333 99.8165 7.46667C99.7494 7 99.6822 6.53333 99.6822 6C99.6822 5.8 99.6822 5.66667 99.6822 5.6C99.6822 5.53333 99.6822 5.53333 99.6822 5.46667V5C99.615 4.93333 99.5478 4.86667 99.4806 4.8C99.4134 4.73333 99.4134 4.66667 99.4134 4.6C99.4134 4.26667 99.6822 4.13333 100.152 4.13333C100.623 4.13333 100.891 4.26667 100.891 4.6C100.891 4.66667 100.824 4.73333 100.824 4.8C100.824 4.86667 100.757 4.93333 100.69 5V6.26667C100.69 6.46667 100.69 6.73333 100.69 7.06667C100.69 7.4 100.824 7.73333 101.093 8C101.362 8.33333 101.563 8.53333 101.698 8.6C101.832 8.66667 102.034 8.73333 102.37 8.73333V5C102.302 4.93333 102.235 4.86667 102.168 4.8C101.429 4.73333 101.429 4.66667 101.429 4.6C101.429 4.26667 101.698 4.13333 102.168 4.13333C102.638 4.13333 102.907 4.26667 102.907 4.6C102.907 4.66667 102.84 4.73333 102.84 4.8C102.84 4.86667 102.773 4.93333 102.705 5V8.73333C103.041 8.73333 103.243 8.73333 103.31 8.66667C103.444 8.53333 103.713 8.33333 103.982 7.93333C104.116 7.73333 104.251 7.46667 104.318 7.13333C104.385 6.8 104.385 6.46667 104.385 6.13333V5C104.318 4.93333 104.251 4.86667 104.183 4.8C104.116 4.73333 104.116 4.66667 104.116 4.6C104.116 4.26667 104.385 4.13333 104.855 4.13333C105.326 4.13333 105.594 4.26667 105.594 4.6C105.594 4.66667 105.527 4.73333 105.527 4.8C105.527 4.86667 105.46 4.93333 105.393 5V5.6C105.393 5.8 105.393 6 105.393 6.06667C105.393 6.53333 105.326 7 105.258 7.46667C105.191 7.93333 105.057 8.26667 104.855 8.6C104.385 9.26667 103.646 9.73333 102.84 9.93333V10.5333C103.377 10.4667 103.78 10.3333 104.116 10.1333C104.452 9.93333 104.855 9.6 105.393 9.13333C105.661 8.86667 105.863 8.4 106.065 7.73333C106.266 7 106.333 6.33333 106.333 5.66667V5C106.266 4.93333 106.199 4.86667 106.132 4.8C106.065 4.73333 106.065 4.66667 106.065 4.6C106.065 4.26667 106.333 4.13333 106.804 4.13333C107.274 4.13333 107.543 4.26667 107.543 4.6C107.543 4.66667 107.475 4.73333 107.475 4.8C107.475 4.86667 107.408 4.93333 107.341 5V5.6C107.341 6.46667 107.207 7.2 107.005 7.93333C106.804 8.6 106.535 9.2 106.132 9.66667C105.326 10.7333 104.251 11.4 102.907 11.6667V12.3333C103.78 12.2 104.452 12 105.057 11.6667C105.661 11.3333 106.199 10.8667 106.804 10.1333C107.274 9.6 107.543 8.93333 107.744 8.06667C107.744 7.93333 107.879 7.13333 108.147 5.6V5C108.08 4.93333 108.013 4.86667 107.946 4.8C107.879 4.73333 107.879 4.66667 107.879 4.6C107.879 4.26667 108.147 4.13333 108.618 4.13333C108.685 4.13333 108.953 4.26667 108.953 4.6ZM113.388 19.9333C113.455 20.2667 113.455 20.4667 113.455 20.6667C113.455 21.2 113.32 21.6667 113.052 22.0667C112.783 22.4667 112.38 22.8 111.775 23.0667V23.6667C111.775 23.8667 111.641 24.2 111.439 24.6C111.238 25 110.969 25.4 110.633 25.6667C110.297 26 109.894 26.2667 109.424 26.4667L109.76 25.5333C110.163 25.4667 110.499 25.2667 110.767 24.9333C111.171 24.4 111.372 23.9333 111.372 23.4667V22.8667C110.835 22.7333 110.432 22.4667 110.163 22.0667C109.894 21.6667 109.76 21.1333 109.76 20.4667C109.76 20.2 109.76 20 109.827 19.8667C110.297 20.2 110.633 20.6667 110.969 21.1333C111.171 21.4667 111.305 21.8 111.439 22.2V19.6667C110.902 19.5333 110.499 19.2667 110.23 18.8667C109.961 18.4667 109.827 17.9333 109.827 17.2667C109.827 17 109.827 16.8 109.894 16.6667C110.364 17 110.7 17.4667 111.036 17.9333C111.238 18.2667 111.372 18.6 111.506 19V16.4667C110.969 16.3333 110.566 16.0667 110.297 15.6667C110.028 15.2667 109.894 14.7333 109.894 14.0667C109.894 13.8 109.894 13.6 109.961 13.4667C110.432 13.8 110.767 14.2667 111.103 14.7333C111.305 15.0667 111.439 15.4 111.574 15.8V13.2667C111.036 13.1333 110.633 12.8667 110.364 12.4667C110.096 12.0667 109.961 11.5333 109.961 10.8667C109.961 10.6 109.961 10.4 110.028 10.2667C110.499 10.6 110.835 11.0667 111.171 11.5333C111.372 11.8667 111.506 12.2 111.641 12.6V10.2C111.103 10.0667 110.7 9.8 110.432 9.4C110.163 9 110.028 8.46667 110.028 7.8C110.028 7.53333 110.028 7.33333 110.096 7.2C110.566 7.53333 110.902 8 111.238 8.46667C111.439 8.8 111.574 9.13333 111.708 9.53333V7.33333C111.171 7.2 110.767 6.93333 110.499 6.53333C110.23 6.13333 110.096 5.6 110.096 4.93333C110.096 4.66667 110.096 4.46667 110.163 4.33333C110.633 4.73333 111.036 5.06667 111.238 5.46667C111.506 5.86667 111.641 6.26667 111.775 6.66667C111.775 6.26667 111.708 5.73333 111.574 5.06667C111.439 4.4 111.372 3.93333 111.372 3.66667C111.372 3.53333 111.439 3.2 111.641 2.73333C111.708 2.6 111.775 2.33333 111.977 2C112.111 2.26667 112.245 2.46667 112.245 2.6C112.447 3.06667 112.581 3.53333 112.581 3.86667C112.581 4.13333 112.514 4.6 112.313 5.13333C112.178 5.73333 112.044 6.26667 112.044 6.86667C112.178 6.4 112.38 5.93333 112.649 5.46667C112.984 5 113.253 4.6 113.589 4.4C113.656 4.73333 113.656 4.93333 113.656 5.13333C113.656 5.66667 113.522 6.13333 113.253 6.53333C112.985 6.93333 112.581 7.26667 111.977 7.53333V9.8C112.111 9.33333 112.313 8.86667 112.581 8.4C112.917 7.93333 113.186 7.53333 113.522 7.33333C113.589 7.6 113.589 7.8 113.589 7.93333C113.589 8.6 113.32 9.2 112.85 9.73333C112.581 10.0667 112.245 10.3333 111.91 10.4667V13C112.044 12.5333 112.245 12.0667 112.514 11.6C112.85 11.1333 113.119 10.7333 113.455 10.5333C113.522 10.8667 113.522 11.0667 113.522 11.2667C113.522 11.8 113.388 12.2667 113.119 12.6667C112.85 13.0667 112.447 13.4 111.842 13.6667V16C111.977 15.5333 112.178 15.0667 112.447 14.6C112.783 14.1333 113.052 13.7333 113.388 13.5333C113.455 13.8667 113.455 14.0667 113.455 14.2667C113.455 14.8 113.32 15.2667 113.052 15.6667C112.783 16.0667 112.38 16.4 111.775 16.6667V19.3333C111.91 18.8667 112.111 18.4 112.38 17.9333C112.716 17.4667 112.984 17.0667 113.32 16.8667C113.388 17.2 113.388 17.4 113.388 17.6C113.388 18.1333 113.253 18.6 112.984 19C112.716 19.4 112.313 19.7333 111.708 20V22.6C111.842 22.1333 112.044 21.6667 112.313 21.2C112.716 20.5333 113.052 20.2 113.388 19.9333ZM113.858 23.2667V1.06667H90.0078V23.2667C90.0078 24.2667 90.1421 25.1333 90.3437 25.8C90.6124 26.5333 91.0155 27.1333 91.6873 27.7333C92.7623 28.6667 94.509 29.2 96.9277 29.4C99.3463 29.6 101.026 30.0667 101.899 30.8C102.773 30.0667 104.452 29.6 106.871 29.4C109.289 29.2 111.036 28.6667 112.111 27.7333C112.716 27.1333 113.186 26.5333 113.455 25.8667C113.724 25.1333 113.858 24.2667 113.858 23.2667ZM114.933 23.4C114.933 24.6 114.798 25.5333 114.53 26.2667C114.261 27 113.724 27.7333 112.917 28.4C111.641 29.5333 109.693 30.2 107.072 30.3333C104.452 30.4667 102.773 31.0667 101.966 32C101.16 31 99.4806 30.4667 96.8605 30.3333C94.2403 30.2 92.292 29.5333 91.0155 28.4C90.2093 27.7333 89.739 27 89.4031 26.2667C89.1344 25.4667 89 24.5333 89 23.4V0H115V23.4H114.933Z" fill="#5B1D14"/>
<path d="M17.9367 4.435C18.0467 4.435 18.1317 4.465 18.1917 4.525C18.2517 4.585 18.2817 4.67 18.2817 4.78V8.92C18.2817 9.8 17.9917 10.595 17.4117 11.305C16.8417 12.005 16.0667 12.5 15.0867 12.79L11.8167 13.825C11.7867 13.835 11.7467 13.84 11.6967 13.84C11.6167 13.84 11.5467 13.815 11.4867 13.765C11.4267 13.715 11.3967 13.65 11.3967 13.57V13.105C11.3967 12.875 11.4767 12.735 11.6367 12.685L13.6017 12.04L11.6517 5.035C11.6017 4.865 11.5767 4.765 11.5767 4.735C11.5767 4.655 11.6067 4.585 11.6667 4.525C11.7267 4.465 11.7967 4.435 11.8767 4.435H12.5667C12.6567 4.435 12.7317 4.46 12.7917 4.51C12.8517 4.55 12.8917 4.6 12.9117 4.66L14.8317 11.62C15.6217 11.34 16.1717 10.945 16.4817 10.435C16.8017 9.925 16.9617 9.285 16.9617 8.515V4.78C16.9617 4.68 16.9917 4.6 17.0517 4.54C17.1217 4.47 17.2067 4.435 17.3067 4.435H17.9367ZM26.6843 4.435C26.7843 4.435 26.8643 4.47 26.9243 4.54C26.9943 4.6 27.0293 4.68 27.0293 4.78V5.26C27.0293 5.36 26.9943 5.44 26.9243 5.5C26.8643 5.56 26.7843 5.59 26.6843 5.59H25.7993C25.6593 5.74 25.5443 5.975 25.4543 6.295C25.3743 6.615 25.3343 6.975 25.3343 7.375V12.67C25.3343 12.77 25.2993 12.85 25.2293 12.91C25.1593 12.97 25.0743 13 24.9743 13H24.3443C24.2443 13 24.1643 12.97 24.1043 12.91C24.0443 12.85 24.0143 12.77 24.0143 12.67V7.285C24.0143 6.875 24.0493 6.525 24.1193 6.235C24.1893 5.945 24.2843 5.73 24.4043 5.59H20.2643C20.1643 5.59 20.0793 5.56 20.0093 5.5C19.9493 5.44 19.9193 5.36 19.9193 5.26V4.78C19.9193 4.68 19.9493 4.6 20.0093 4.54C20.0793 4.47 20.1643 4.435 20.2643 4.435H26.6843ZM32.7389 4.435C33.3589 4.435 33.9089 4.585 34.3889 4.885C34.8789 5.175 35.2589 5.595 35.5289 6.145C35.8089 6.695 35.9489 7.345 35.9489 8.095V12.655C35.9489 12.755 35.9139 12.84 35.8439 12.91C35.7839 12.97 35.7039 13 35.6039 13H31.7339C31.6339 13 31.5489 12.97 31.4789 12.91C31.4189 12.84 31.3889 12.755 31.3889 12.655V12.175C31.3889 12.075 31.4189 11.995 31.4789 11.935C31.5489 11.865 31.6339 11.83 31.7339 11.83H34.6289V8.185C34.6289 7.425 34.4339 6.81 34.0439 6.34C33.6639 5.86 33.1789 5.62 32.5889 5.62H31.0139L29.8439 12.64C29.8339 12.74 29.7939 12.825 29.7239 12.895C29.6539 12.965 29.5689 13 29.4689 13H28.8389C28.7389 13 28.6589 12.965 28.5989 12.895C28.5489 12.825 28.5289 12.74 28.5389 12.64L29.7389 5.62H28.9739C28.8739 5.62 28.7889 5.59 28.7189 5.53C28.6589 5.46 28.6289 5.375 28.6289 5.275V4.78C28.6289 4.68 28.6589 4.6 28.7189 4.54C28.7889 4.47 28.8739 4.435 28.9739 4.435H32.7389ZM44.2453 13C44.1453 13 44.0603 12.97 43.9903 12.91C43.9303 12.84 43.9003 12.755 43.9003 12.655V8.17C43.9003 6.45 43.0453 5.59 41.3353 5.59H38.5453C38.4453 5.59 38.3603 5.56 38.2903 5.5C38.2303 5.44 38.2003 5.36 38.2003 5.26V4.78C38.2003 4.68 38.2303 4.6 38.2903 4.54C38.3603 4.47 38.4453 4.435 38.5453 4.435H41.4103C43.9503 4.435 45.2203 5.665 45.2203 8.125V12.655C45.2203 12.755 45.1903 12.84 45.1303 12.91C45.0703 12.97 44.9903 13 44.8903 13H44.2453ZM38.5453 13C38.4453 13 38.3603 12.97 38.2903 12.91C38.2303 12.84 38.2003 12.755 38.2003 12.655V7.615C38.2003 7.515 38.2303 7.435 38.2903 7.375C38.3603 7.305 38.4453 7.27 38.5453 7.27H39.1753C39.2753 7.27 39.3553 7.305 39.4153 7.375C39.4853 7.435 39.5203 7.515 39.5203 7.615V12.655C39.5203 12.755 39.4853 12.84 39.4153 12.91C39.3553 12.97 39.2753 13 39.1753 13H38.5453ZM56.9186 4.435C57.0186 4.435 57.0986 4.47 57.1586 4.54C57.2286 4.6 57.2636 4.68 57.2636 4.78V5.26C57.2636 5.36 57.2286 5.44 57.1586 5.5C57.0986 5.56 57.0186 5.59 56.9186 5.59H56.0336C55.8936 5.74 55.7786 5.975 55.6886 6.295C55.6086 6.615 55.5686 6.975 55.5686 7.375V12.67C55.5686 12.77 55.5336 12.85 55.4636 12.91C55.3936 12.97 55.3086 13 55.2086 13H54.5786C54.4786 13 54.3986 12.97 54.3386 12.91C54.2786 12.85 54.2486 12.77 54.2486 12.67V7.285C54.2486 6.875 54.2836 6.525 54.3536 6.235C54.4236 5.945 54.5186 5.73 54.6386 5.59H50.4986C50.3986 5.59 50.3136 5.56 50.2436 5.5C50.1836 5.44 50.1536 5.36 50.1536 5.26V4.78C50.1536 4.68 50.1836 4.6 50.2436 4.54C50.3136 4.47 50.3986 4.435 50.4986 4.435H56.9186ZM63.9782 13C63.8782 13 63.7932 12.97 63.7232 12.91C63.6632 12.84 63.6332 12.755 63.6332 12.655V8.17C63.6332 6.45 62.7732 5.59 61.0532 5.59H59.1182C59.0182 5.59 58.9332 5.56 58.8632 5.5C58.8032 5.44 58.7732 5.36 58.7732 5.26V4.78C58.7732 4.68 58.8032 4.6 58.8632 4.54C58.9332 4.47 59.0182 4.435 59.1182 4.435H61.1432C63.6832 4.435 64.9532 5.655 64.9532 8.095V12.655C64.9532 12.755 64.9182 12.84 64.8482 12.91C64.7882 12.97 64.7082 13 64.6082 13H63.9782ZM75.3792 4.435C75.4892 4.435 75.5742 4.465 75.6342 4.525C75.6942 4.585 75.7242 4.67 75.7242 4.78V8.95C75.7242 9.79 75.5492 10.53 75.1992 11.17C74.8592 11.8 74.3742 12.285 73.7442 12.625C73.1242 12.955 72.4092 13.11 71.5992 13.09H70.4892C69.8492 13.09 69.2692 12.94 68.7492 12.64C68.2292 12.34 67.8192 11.92 67.5192 11.38C67.2192 10.83 67.0692 10.2 67.0692 9.49V4.78C67.0692 4.68 67.0992 4.6 67.1592 4.54C67.2292 4.47 67.3142 4.435 67.4142 4.435H67.9992C68.0992 4.435 68.1792 4.47 68.2392 4.54C68.3092 4.6 68.3442 4.68 68.3442 4.78L68.3892 9.04C69.2992 8.97 69.9342 8.725 70.2942 8.305C70.6542 7.885 70.8342 7.335 70.8342 6.655V4.78C70.8342 4.68 70.8642 4.6 70.9242 4.54C70.9842 4.47 71.0642 4.435 71.1642 4.435H71.7492C71.8492 4.435 71.9292 4.47 71.9892 4.54C72.0592 4.6 72.0942 4.68 72.0942 4.78V6.715C72.0942 7.675 71.7892 8.465 71.1792 9.085C70.5692 9.705 69.6742 10.045 68.4942 10.105C68.6542 10.685 68.9492 11.135 69.3792 11.455C69.8192 11.765 70.3442 11.92 70.9542 11.92H71.4342C72.3842 11.93 73.1242 11.655 73.6542 11.095C74.1842 10.535 74.4492 9.79 74.4492 8.86V4.78C74.4492 4.68 74.4792 4.6 74.5392 4.54C74.6092 4.47 74.6942 4.435 74.7942 4.435H75.3792ZM81.7086 4.435C82.3286 4.435 82.8786 4.585 83.3586 4.885C83.8486 5.175 84.2286 5.595 84.4986 6.145C84.7786 6.695 84.9186 7.345 84.9186 8.095V12.655C84.9186 12.755 84.8836 12.84 84.8136 12.91C84.7536 12.97 84.6736 13 84.5736 13H80.7036C80.6036 13 80.5186 12.97 80.4486 12.91C80.3886 12.84 80.3586 12.755 80.3586 12.655V12.175C80.3586 12.075 80.3886 11.995 80.4486 11.935C80.5186 11.865 80.6036 11.83 80.7036 11.83H83.5986V8.185C83.5986 7.425 83.4036 6.81 83.0136 6.34C82.6336 5.86 82.1486 5.62 81.5586 5.62H79.9836L78.8136 12.64C78.8036 12.74 78.7636 12.825 78.6936 12.895C78.6236 12.965 78.5386 13 78.4386 13H77.8086C77.7086 13 77.6286 12.965 77.5686 12.895C77.5186 12.825 77.4986 12.74 77.5086 12.64L78.7086 5.62H77.9436C77.8436 5.62 77.7586 5.59 77.6886 5.53C77.6286 5.46 77.5986 5.375 77.5986 5.275V4.78C77.5986 4.68 77.6286 4.6 77.6886 4.54C77.7586 4.47 77.8436 4.435 77.9436 4.435H81.7086ZM21.716 27C21.616 27 21.531 26.97 21.461 26.91C21.401 26.84 21.371 26.755 21.371 26.655V22.17C21.371 20.45 20.516 19.59 18.806 19.59H16.016C15.916 19.59 15.831 19.56 15.761 19.5C15.701 19.44 15.671 19.36 15.671 19.26V18.78C15.671 18.68 15.701 18.6 15.761 18.54C15.831 18.47 15.916 18.435 16.016 18.435H18.881C21.421 18.435 22.691 19.665 22.691 22.125V26.655C22.691 26.755 22.661 26.84 22.601 26.91C22.541 26.97 22.461 27 22.361 27H21.716ZM16.016 27C15.916 27 15.831 26.97 15.761 26.91C15.701 26.84 15.671 26.755 15.671 26.655V21.615C15.671 21.515 15.701 21.435 15.761 21.375C15.831 21.305 15.916 21.27 16.016 21.27H16.646C16.746 21.27 16.826 21.305 16.886 21.375C16.956 21.435 16.991 21.515 16.991 21.615V26.655C16.991 26.755 16.956 26.84 16.886 26.91C16.826 26.97 16.746 27 16.646 27H16.016ZM25.1834 23.52C25.0834 23.52 24.9984 23.49 24.9284 23.43C24.8684 23.36 24.8384 23.275 24.8384 23.175V18.78C24.8384 18.68 24.8684 18.6 24.9284 18.54C24.9984 18.47 25.0834 18.435 25.1834 18.435H25.8434C25.9434 18.435 26.0234 18.47 26.0834 18.54C26.1534 18.6 26.1884 18.68 26.1884 18.78V23.175C26.1884 23.275 26.1534 23.36 26.0834 23.43C26.0234 23.49 25.9434 23.52 25.8434 23.52H25.1834ZM33.3501 26.655C33.3601 26.755 33.3301 26.84 33.2601 26.91C33.2001 26.97 33.1151 27 33.0051 27H32.3451C32.1651 27 32.0551 26.885 32.0151 26.655L31.6701 24.9C31.3001 25.47 30.8751 25.915 30.3951 26.235C30.0251 26.485 29.6801 26.68 29.3601 26.82C29.0401 26.95 28.7001 27.05 28.3401 27.12L28.2351 27.135C28.0651 27.135 27.9801 27.055 27.9801 26.895V26.19C27.9801 26.02 28.0851 25.895 28.2951 25.815C28.3251 25.805 28.5201 25.74 28.8801 25.62C29.2501 25.49 29.5801 25.33 29.8701 25.14C30.1701 24.95 30.4651 24.69 30.7551 24.36C31.0451 24.02 31.2501 23.7 31.3701 23.4L31.1001 22.05C30.9801 21.46 30.8501 20.995 30.7101 20.655C30.5801 20.305 30.4001 20.04 30.1701 19.86C29.9401 19.68 29.6351 19.59 29.2551 19.59H28.7151C28.6151 19.59 28.5301 19.56 28.4601 19.5C28.4001 19.44 28.3701 19.36 28.3701 19.26V18.75C28.3701 18.65 28.4001 18.57 28.4601 18.51C28.5301 18.44 28.6151 18.405 28.7151 18.405H29.2701C29.9101 18.405 30.4351 18.535 30.8451 18.795C31.2551 19.055 31.5801 19.44 31.8201 19.95C32.0601 20.46 32.2651 21.135 32.4351 21.975L33.3501 26.655ZM35.4252 27C35.3252 27 35.2402 26.97 35.1702 26.91C35.1102 26.84 35.0802 26.755 35.0802 26.655V18.78C35.0802 18.68 35.1102 18.6 35.1702 18.54C35.2402 18.47 35.3252 18.435 35.4252 18.435H36.0852C36.1852 18.435 36.2652 18.47 36.3252 18.54C36.3952 18.6 36.4302 18.68 36.4302 18.78V26.655C36.4302 26.755 36.3952 26.84 36.3252 26.91C36.2652 26.97 36.1852 27 36.0852 27H35.4252ZM40.9319 18.435C41.8419 18.435 42.5619 18.565 43.0919 18.825C43.6319 19.085 44.0219 19.5 44.2619 20.07C44.5019 20.64 44.6219 21.4 44.6219 22.35C44.6219 23.63 44.3069 24.63 43.6769 25.35C43.0469 26.06 42.2269 26.585 41.2169 26.925L40.5869 27.135C40.5669 27.145 40.5319 27.15 40.4819 27.15C40.4119 27.15 40.3469 27.125 40.2869 27.075C40.2369 27.025 40.2119 26.955 40.2119 26.865V26.205C40.2119 26.125 40.2419 26.05 40.3019 25.98C40.3619 25.9 40.4419 25.84 40.5419 25.8L41.1269 25.575C41.8169 25.315 42.3469 24.94 42.7169 24.45C43.0869 23.96 43.2719 23.24 43.2719 22.29C43.2719 21.62 43.1919 21.095 43.0319 20.715C42.8719 20.325 42.6069 20.045 42.2369 19.875C41.8769 19.705 41.3769 19.62 40.7369 19.62H40.2719H40.2269L38.8469 19.605C38.7469 19.605 38.6619 19.575 38.5919 19.515C38.5319 19.455 38.5019 19.375 38.5019 19.275V16.695C38.5019 16.595 38.5319 16.515 38.5919 16.455C38.6619 16.385 38.7469 16.35 38.8469 16.35H39.4469C39.5469 16.35 39.6269 16.385 39.6869 16.455C39.7469 16.515 39.7769 16.595 39.7769 16.695V18.435H40.6319H40.9319ZM46.9535 27C46.8535 27 46.7685 26.97 46.6985 26.91C46.6385 26.84 46.6085 26.755 46.6085 26.655V18.78C46.6085 18.68 46.6385 18.6 46.6985 18.54C46.7685 18.47 46.8535 18.435 46.9535 18.435H47.6135C47.7135 18.435 47.7935 18.47 47.8535 18.54C47.9235 18.6 47.9585 18.68 47.9585 18.78V26.655C47.9585 26.755 47.9235 26.84 47.8535 26.91C47.7935 26.97 47.7135 27 47.6135 27H46.9535ZM54.4702 26.655C54.4802 26.755 54.4502 26.84 54.3802 26.91C54.3202 26.97 54.2352 27 54.1252 27H53.4652H50.1352C50.0352 27 49.9502 26.97 49.8802 26.91C49.8202 26.84 49.7902 26.755 49.7902 26.655V26.175C49.7902 26.075 49.8202 25.995 49.8802 25.935C49.9502 25.865 50.0352 25.83 50.1352 25.83H53.0752L52.8352 22.02C52.7952 21.38 52.7452 20.905 52.6852 20.595C52.6352 20.285 52.5152 20.035 52.3252 19.845C52.1352 19.655 51.8352 19.56 51.4252 19.56H50.8252C50.7252 19.56 50.6402 19.53 50.5702 19.47C50.5102 19.41 50.4802 19.33 50.4802 19.23V18.75C50.4802 18.65 50.5102 18.57 50.5702 18.51C50.6402 18.44 50.7252 18.405 50.8252 18.405H51.4402C52.1602 18.405 52.7102 18.55 53.0902 18.84C53.4802 19.12 53.7452 19.51 53.8852 20.01C54.0352 20.51 54.1352 21.165 54.1852 21.975L54.4702 26.655ZM56.724 27C56.624 27 56.539 26.97 56.469 26.91C56.409 26.84 56.379 26.755 56.379 26.655V26.16C56.379 26.06 56.409 25.98 56.469 25.92C56.539 25.85 56.624 25.815 56.724 25.815H58.869C59.739 25.815 60.379 25.595 60.789 25.155C61.199 24.715 61.424 24.075 61.464 23.235C61.474 23.095 61.479 22.92 61.479 22.71C61.479 22.51 61.474 22.34 61.464 22.2C61.434 21.35 61.209 20.71 60.789 20.28C60.379 19.84 59.739 19.62 58.869 19.62H56.724C56.624 19.62 56.539 19.59 56.469 19.53C56.409 19.46 56.379 19.375 56.379 19.275V18.78C56.379 18.68 56.409 18.6 56.469 18.54C56.539 18.47 56.624 18.435 56.724 18.435H58.944C60.224 18.435 61.169 18.755 61.779 19.395C62.389 20.025 62.714 20.94 62.754 22.14C62.764 22.28 62.769 22.47 62.769 22.71C62.769 22.95 62.764 23.145 62.754 23.295C62.714 24.495 62.389 25.415 61.779 26.055C61.169 26.685 60.224 27 58.944 27H56.724ZM68.4479 27.15C67.1479 27.15 66.1929 26.84 65.5829 26.22C64.9829 25.59 64.6829 24.675 64.6829 23.475V18.78C64.6829 18.68 64.7129 18.6 64.7729 18.54C64.8429 18.47 64.9279 18.435 65.0279 18.435H65.6129C65.7129 18.435 65.7929 18.47 65.8529 18.54C65.9229 18.6 65.9579 18.68 65.9579 18.78V23.4C65.9579 24.23 66.1629 24.865 66.5729 25.305C66.9929 25.745 67.6179 25.965 68.4479 25.965C69.2779 25.965 69.8879 25.765 70.2779 25.365C70.6779 24.955 70.8879 24.34 70.9079 23.52V23.055V21.975C70.8979 21.155 70.7279 20.545 70.3979 20.145C70.0679 19.745 69.6129 19.545 69.0329 19.545C68.8629 19.545 68.6629 19.58 68.4329 19.65C68.2129 19.71 68.0279 19.79 67.8779 19.89C67.8279 19.92 67.7779 19.935 67.7279 19.935C67.6579 19.935 67.5929 19.91 67.5329 19.86C67.4829 19.8 67.4579 19.735 67.4579 19.665V19.23C67.4579 19.11 67.4679 19.015 67.4879 18.945C67.5079 18.875 67.5579 18.815 67.6379 18.765C67.8479 18.625 68.0679 18.525 68.2979 18.465C68.5379 18.395 68.8379 18.36 69.1979 18.36C71.1679 18.36 72.1729 19.515 72.2129 21.825C72.2229 21.925 72.2279 22.22 72.2279 22.71C72.2279 23.2 72.2229 23.495 72.2129 23.595C72.1729 24.795 71.8579 25.69 71.2679 26.28C70.6879 26.86 69.7479 27.15 68.4479 27.15ZM80.2658 27C80.1658 27 80.0808 26.97 80.0108 26.91C79.9508 26.84 79.9208 26.755 79.9208 26.655V22.17C79.9208 20.45 79.0658 19.59 77.3558 19.59H74.5658C74.4658 19.59 74.3808 19.56 74.3108 19.5C74.2508 19.44 74.2208 19.36 74.2208 19.26V18.78C74.2208 18.68 74.2508 18.6 74.3108 18.54C74.3808 18.47 74.4658 18.435 74.5658 18.435H77.4308C79.9708 18.435 81.2408 19.665 81.2408 22.125V26.655C81.2408 26.755 81.2108 26.84 81.1508 26.91C81.0908 26.97 81.0108 27 80.9108 27H80.2658ZM74.5658 27C74.4658 27 74.3808 26.97 74.3108 26.91C74.2508 26.84 74.2208 26.755 74.2208 26.655V21.615C74.2208 21.515 74.2508 21.435 74.3108 21.375C74.3808 21.305 74.4658 21.27 74.5658 21.27H75.1958C75.2958 21.27 75.3758 21.305 75.4358 21.375C75.5058 21.435 75.5408 21.515 75.5408 21.615V26.655C75.5408 26.755 75.5058 26.84 75.4358 26.91C75.3758 26.97 75.2958 27 75.1958 27H74.5658ZM83.8382 27C83.7382 27 83.6532 26.97 83.5832 26.91C83.5232 26.84 83.4932 26.755 83.4932 26.655V18.78C83.4932 18.68 83.5232 18.6 83.5832 18.54C83.6532 18.47 83.7382 18.435 83.8382 18.435H84.4982C84.5982 18.435 84.6782 18.47 84.7382 18.54C84.8082 18.6 84.8432 18.68 84.8432 18.78V26.655C84.8432 26.755 84.8082 26.84 84.7382 26.91C84.6782 26.97 84.5982 27 84.4982 27H83.8382Z" fill="#5B1D14"/>
</svg>
