<svg width="14" height="11" viewBox="0 0 14 11" fill="none" xmlns="http://www.w3.org/2000/svg">
<path d="M11.75 9.25H10.625V9.48438C10.625 9.57812 10.5547 9.625 10.4844 9.625H1.76562C1.67188 9.625 1.625 9.57812 1.625 9.48438V3.76562C1.625 3.69531 1.67188 3.625 1.76562 3.625H2V2.5H1.625C0.992188 2.5 0.5 3.01562 0.5 3.625V9.625C0.5 10.2578 0.992188 10.75 1.625 10.75H10.625C11.2344 10.75 11.75 10.2578 11.75 9.625V9.25ZM12.7344 1.375C12.8047 1.375 12.875 1.44531 12.875 1.51562V7.23438C12.875 7.32812 12.8047 7.375 12.7344 7.375H4.01562C3.92188 7.375 3.875 7.32812 3.875 7.23438V1.51562C3.875 1.44531 3.92188 1.375 4.01562 1.375H12.7344ZM12.875 0.25H3.875C3.24219 0.25 2.75 0.765625 2.75 1.375V7.375C2.75 8.00781 3.24219 8.5 3.875 8.5H12.875C13.4844 8.5 14 8.00781 14 7.375V1.375C14 0.765625 13.4844 0.25 12.875 0.25ZM6.6875 2.875C6.6875 2.35938 6.26562 1.9375 5.75 1.9375C5.21094 1.9375 4.8125 2.35938 4.8125 2.875C4.8125 3.41406 5.21094 3.8125 5.75 3.8125C6.26562 3.8125 6.6875 3.41406 6.6875 2.875ZM5 5.125V6.25H11.75V4.375L10.0625 2.71094C9.94531 2.59375 9.78125 2.59375 9.66406 2.71094L7.25 5.125L6.3125 4.21094C6.19531 4.09375 6.03125 4.09375 5.91406 4.21094L5 5.125Z" fill="#5B6676"/>
</svg>