<svg width="12" height="13" viewBox="0 0 12 13" fill="none" xmlns="http://www.w3.org/2000/svg">
<path d="M10.5 0.5H1.5C0.65625 0.5 0 1.17969 0 2V8.75C0 9.59375 0.65625 10.25 1.5 10.25H3.75V12.2188C3.75 12.4062 3.86719 12.5 4.03125 12.5C4.07812 12.5 4.125 12.5 4.19531 12.4531L7.125 10.25H10.5C11.3203 10.25 12 9.59375 12 8.75V2C12 1.17969 11.3203 0.5 10.5 0.5ZM10.875 8.75C10.875 8.96094 10.6875 9.125 10.5 9.125H6.75L6.44531 9.35938L4.875 10.5312V9.125H1.5C1.28906 9.125 1.125 8.96094 1.125 8.75V2C1.125 1.8125 1.28906 1.625 1.5 1.625H10.5C10.6875 1.625 10.875 1.8125 10.875 2V8.75Z" fill="#5B6676"/>
</svg>
