<svg width="10" height="14" viewBox="0 0 10 14" fill="none" xmlns="http://www.w3.org/2000/svg">
<path d="M10 12.6838C10 13.4105 9.43853 13.9949 8.75121 13.9949H1.24879C0.561471 14 0 13.4105 0 12.6838V1.31107C0 0.589474 0.561471 0 1.24879 0H6.56341C6.89255 0 7.212 0.137205 7.44434 0.386207L9.6273 2.67804C9.85963 2.92196 9.99516 3.25735 9.99516 3.6029V12.6838H10ZM8.75121 4.81234H6.04066C5.69216 4.81234 5.41626 4.5176 5.41626 4.15681V1.31107H1.24879V12.6838H8.75121V4.81234ZM7.50242 7.54628C7.50242 7.72414 7.36205 7.87659 7.1878 7.87659H2.8122C2.64279 7.87659 2.49758 7.72922 2.49758 7.54628V6.77895C2.49758 6.60109 2.63795 6.44864 2.8122 6.44864H7.1878C7.35721 6.44864 7.50242 6.59601 7.50242 6.77895V7.54628ZM7.50242 9.07586V9.84319C7.50242 10.0211 7.36205 10.1735 7.1878 10.1735H2.8122C2.64279 10.1735 2.49758 10.0261 2.49758 9.84319V9.07586C2.49758 8.898 2.63795 8.74555 2.8122 8.74555H7.1878C7.35721 8.75064 7.50242 8.898 7.50242 9.07586ZM6.66505 3.50127H8.64472L6.66505 1.42287V3.50127Z" fill="#5B6676"/>
</svg>